<?xml version="1.0" encoding="UTF-8" standalone="no"?>
<svg
   xmlns:osb="http://www.openswatchbook.org/uri/2009/osb"
   xmlns:dc="http://purl.org/dc/elements/1.1/"
   xmlns:cc="http://creativecommons.org/ns#"
   xmlns:rdf="http://www.w3.org/1999/02/22-rdf-syntax-ns#"
   xmlns:svg="http://www.w3.org/2000/svg"
   xmlns="http://www.w3.org/2000/svg"
   xmlns:xlink="http://www.w3.org/1999/xlink"
   xmlns:sodipodi="http://sodipodi.sourceforge.net/DTD/sodipodi-0.dtd"
   xmlns:inkscape="http://www.inkscape.org/namespaces/inkscape"
   version="1.1"
   viewBox="0 0 78.894883 71.038696"
   enable-background="new 0 0 100 100"
   xml:space="preserve"
   id="svg2"
   inkscape:version="1.0 (b51213c273, 2020-08-10)"
   sodipodi:docname="goat.svg"
   width="100%"
   height="100%"><metadata
     id="metadata42"><rdf:RDF><cc:Work
         rdf:about=""><dc:format>image/svg+xml</dc:format><dc:type
           rdf:resource="http://purl.org/dc/dcmitype/StillImage" /><dc:title /></cc:Work></rdf:RDF></metadata><defs
     id="defs40"><linearGradient
       id="beard"
       osb:paint="gradient"><stop
         style="stop-color:#00a600;stop-opacity:1;"
         offset="0"
         id="stop883" /><stop
         style="stop-color:#FFF;stop-opacity:1;"
         offset="1"
         id="stop885" /></linearGradient><linearGradient
       inkscape:collect="always"
       xlink:href="#beard"
       id="linearGradient1152"
       gradientUnits="userSpaceOnUse"
       x1="35.778889"
       y1="56.533821"
       x2="35.661049"
       y2="56.208328"
       gradientTransform="translate(-9.9999999,-10)" /></defs><sodipodi:namedview
     pagecolor="#ffffff"
     bordercolor="#666666"
     borderopacity="1"
     objecttolerance="10"
     gridtolerance="10"
     guidetolerance="10"
     inkscape:pageopacity="0"
     inkscape:pageshadow="2"
     inkscape:window-width="2766"
     inkscape:window-height="1291"
     id="namedview38"
     showgrid="false"
     fit-margin-top="0"
     fit-margin-left="0"
     fit-margin-right="0"
     fit-margin-bottom="0"
     inkscape:zoom="11.312668"
     inkscape:cx="11.376731"
     inkscape:cy="31.532464"
     inkscape:window-x="43"
     inkscape:window-y="79"
     inkscape:window-maximized="0"
     inkscape:current-layer="g1321"
     inkscape:document-rotation="0"
     lock-margins="false" /><g
     id="g1321"><g
       id="g3403"><path
         style="fill:#c815ff;fill-opacity:1;stroke:none;stroke-width:1px;stroke-linecap:butt;stroke-linejoin:miter;stroke-opacity:1"
         d="m 38.858958,7.520694 2.831,-3.545 -8.58,0.817 c 0.898664,1.2789379 1.108742,2.8079615 5.749,2.728 z"
         id="path1257"
         sodipodi:nodetypes="cccc" /><path
         style="fill:#c815ff;fill-opacity:1;stroke:none;stroke-width:1px;stroke-linecap:butt;stroke-linejoin:miter;stroke-opacity:1"
         d="m 22.902958,2.960694 c 1.268867,1.3743947 1.820023,3.0564504 6.842,2.822 l 4.445,-4.431 c -4.840918,-0.87909922 -7.843342,0.6544667 -11.287,1.609 z"
         id="path1263"
         sodipodi:nodetypes="cccc" /><path
         style="fill:#c815ff;fill-opacity:1;stroke:none;stroke-width:1px;stroke-linecap:butt;stroke-linejoin:miter;stroke-opacity:1"
         d="m 36.078958,11.001694 2.78,-3.481 c -3.936656,-0.3222415 -5.188506,-1.4246691 -5.749,-2.728 l -5.09,3.372 c 1.791103,2.124926 3.849413,3.897869 8.059,2.837 z"
         id="path1259"
         sodipodi:nodetypes="ccccc" /><path
         style="fill:#c815ff;fill-opacity:1;stroke:none;stroke-width:1px;stroke-linecap:butt;stroke-linejoin:miter;stroke-opacity:1"
         d="m 17.972958,6.587694 4.93,-3.627 c 1.342888,1.317038 1.636442,3.0552196 6.842,2.822 l -4.306,3.257 c -5.305309,0.078919 -5.443467,-1.4863435 -7.466,-2.452 z"
         id="path1265"
         sodipodi:nodetypes="ccccc" /><path
         style="fill:#c815ff;fill-opacity:1;stroke:none;stroke-width:1px;stroke-linecap:butt;stroke-linejoin:miter;stroke-opacity:1"
         d="m 33.154958,14.662694 2.924,-3.661 c -3.538225,0.943126 -6.053576,-0.381637 -8.059,-2.837 l -3.437,3.04 c 2.029591,3.021605 5.004564,3.800931 8.572,3.458 z"
         id="path1261"
         sodipodi:nodetypes="ccccc" /><path
         style="fill:#c815ff;fill-opacity:1;stroke:none;stroke-width:1px;stroke-linecap:butt;stroke-linejoin:miter;stroke-opacity:1"
         d="m 14.350958,10.869694 3.622,-4.282 c 1.892994,1.4217338 3.80978,2.8193269 7.466,2.452 l -1.896,2.927 c -4.227045,1.933198 -6.50225,0.0084 -9.192,-1.097 z"
         id="path1267"
         sodipodi:nodetypes="ccccc" /><g
         id="g961"
         transform="translate(-9.9999999,-10)"><g
           id="g1150"
           style="fill:#bcbcbc;fill-opacity:1"><path
             id="path24"
             style="fill:#bcbcbc;fill-opacity:1;stroke:#000000;stroke-width:2;stroke-linecap:round;stroke-linejoin:round;stroke-miterlimit:10"
             d="m 54.166958,66.454694 c 0,0 3,3.667 8.5,3.667 5.5,0 7.583,-1.583 7.583,-1.583 l 0.438,11.5 h 6.167 c 3.084,-0.833 5.396,-15.916 4.146,-23.083 -1.25,-7.167 -14.167,-11.334 -23.417,-11.167 -9.25,0.167 -12.101,-6.415 -12.101,-6.415 l -0.847425,6.610876 -4.344575,8.679124 2.107579,2.273864 c 0.393595,2.003753 0.752215,3.99432 3.851421,7.018136 l -3.326535,0.0061 c 0.153393,-0.379811 5.910535,16.07692 9.576535,16.07692 h 6.584 v -10.47"
             sodipodi:nodetypes="ccsscccccccccscc" /><path
             style="fill:#bcbcbc;fill-opacity:1;stroke:#000000;stroke-width:1.7;stroke-linecap:butt;stroke-linejoin:round;stroke-miterlimit:4;stroke-dasharray:none;stroke-opacity:1"
             d="m 42.923423,63.961794 c 2.443307,5.686147 4.633739,11.460258 8.340103,16.178481 l -4.487412,0.01844 c -0.829702,0.001 -5.770867,-1.953957 -10.46184,-14.49414 0.50036,-0.08843 0.471725,-1.511799 -0.393975,-4.047312 3.268625,1.183395 2.441063,1.309495 7.003129,2.344531 z"
             id="path863"
             sodipodi:nodetypes="ccccccc" /><path
             style="fill:#bcbcbc;fill-opacity:1;stroke:#000000;stroke-width:1.9;stroke-linecap:round;stroke-linejoin:round;stroke-miterlimit:4;stroke-dasharray:none;stroke-opacity:1"
             d="m 64.832958,70.030694 2,10.008 h 3.855 l -0.438,-11.5 c 0,0 -2.857051,1.649402 -5.417,1.492 z"
             id="path861" /></g></g><path
         stroke-miterlimit="10"
         d="m 17.167958,48.106694 c 0,0 -0.5,2.377 4.333,5.113 4.833,2.736 6.833,2.736 6.833,2.736 0,0 -2.75,-3 -2.417,-4.417 0.333,-1.417 5.417,4.083 10.333,2.417 0,0 -1.655,-1.591 -2.953,-5.004 -1.089,-2.725 -2.157,-3.589 -3.006,-4.288 0,0 6.708,-7.125 4.958,-17.125 0,0 -0.75,-4.75 -3.5,-7.75 0,0 6.167,8.167 16.5,3.417 0,0 -1.167,-3.75 -5.833,-6.917 -4.666,-3.167 -8.25,-1.333 -12.583,-1.417 -4.333,-0.083 -5.25,-3.667 -5.25,-3.667 0,0 -3,2.75 -6.333,1.667 -3.333,-1.083 -3.25,-3.25 -8.167,-1.667 -4.9169999,1.583 -9.0829999,7.5 -9.0829999,7.5 0,0 8.333,5.333 12.8329999,-2.583 0,0 -3.9999999,10.5 -5.6669999,14 -1.667,3.5 -7.5,20.5 13.9999999,17.667"
         id="path4"
         inkscape:connector-curvature="0"
         style="fill:url(#linearGradient1152);fill-opacity:1;stroke:#000000;stroke-width:2;stroke-linecap:round;stroke-linejoin:round;stroke-miterlimit:10" /><path
         stroke-miterlimit="10"
         d="m 14.350958,10.869694 c 0,0 6.901,-7.705 11.401,-8.893 4.5,-1.188 6.334,-1.185 8.438,-0.625 l -2.691,2.683 -7.956,7.932 c 0,0 8.96,-10.616 18.147,-7.991 l -8.535,10.687"
         id="path6"
         inkscape:connector-curvature="0"
         style="fill:none;stroke:#000000;stroke-width:2;stroke-linecap:round;stroke-linejoin:round;stroke-miterlimit:10" /><circle
         stroke-miterlimit="10"
         cx="13.251957"
         cy="26.289692"
         r="0.75"
         id="circle8"
         style="fill:none;stroke:#000000;stroke-width:2;stroke-linecap:round;stroke-linejoin:round;stroke-miterlimit:10" /><circle
         stroke-miterlimit="10"
         cx="28.417957"
         cy="27.789692"
         r="0.75"
         id="circle10"
         style="fill:none;stroke:#000000;stroke-width:2;stroke-linecap:round;stroke-linejoin:round;stroke-miterlimit:10" /><path
         stroke-miterlimit="10"
         d="m 11.167958,39.539694 c 0,0 3.292,0.75 3.625,3.208"
         id="path12"
         inkscape:connector-curvature="0"
         style="fill:none;stroke:#000000;stroke-linecap:round;stroke-linejoin:round;stroke-miterlimit:10" /><path
         stroke-miterlimit="10"
         d="m 18.202958,43.596694 c 0,0 1.625,-2.417 4.917,-1.875"
         id="path14"
         inkscape:connector-curvature="0"
         style="fill:none;stroke:#000000;stroke-linecap:round;stroke-linejoin:round;stroke-miterlimit:10" /><path
         stroke-miterlimit="10"
         d="m 17.972958,6.587694 c 0,0 3.216,2.827 7.466,2.452"
         id="path26"
         inkscape:connector-curvature="0"
         style="fill:none;stroke:#000000;stroke-linecap:round;stroke-linejoin:round;stroke-miterlimit:10" /><path
         stroke-miterlimit="10"
         d="m 22.902958,2.960694 c 0,0 1.211,3.19 6.842,2.822"
         id="path28"
         inkscape:connector-curvature="0"
         style="fill:none;stroke:#000000;stroke-linecap:round;stroke-linejoin:round;stroke-miterlimit:10" /><path
         stroke-miterlimit="10"
         d="m 28.019958,8.164694 c 0,0 2.262,4.237 8.059,2.837"
         id="path30"
         inkscape:connector-curvature="0"
         style="fill:none;stroke:#000000;stroke-linecap:round;stroke-linejoin:round;stroke-miterlimit:10" /><path
         stroke-miterlimit="10"
         d="m 33.109958,4.792694 c 0,0 0.857,2.958 5.749,2.728"
         id="path32"
         inkscape:connector-curvature="0"
         style="fill:none;stroke:#000000;stroke-linecap:round;stroke-linejoin:round;stroke-miterlimit:10" /><path
         id="path24-3"
         style="fill:#ffaeae;fill-opacity:1;stroke:#000000;stroke-width:2;stroke-linecap:round;stroke-linejoin:round;stroke-miterlimit:10"
         d="m 69.323928,43.423048 c 0,0 4.946,3.81 8.571,0.268 0,0 -1.308,7.958 -6.613,8.083 -0.153174,-3.87758 -0.833953,-6.59968 -1.958,-8.351 z"
         sodipodi:nodetypes="cccc" /></g></g></svg>
