<?xml version="1.0" encoding="UTF-8" standalone="no"?>
<!-- Created with Inkscape (http://www.inkscape.org/) -->

<svg
   xmlns:dc="http://purl.org/dc/elements/1.1/"
   xmlns:cc="http://creativecommons.org/ns#"
   xmlns:rdf="http://www.w3.org/1999/02/22-rdf-syntax-ns#"
   xmlns:svg="http://www.w3.org/2000/svg"
   xmlns="http://www.w3.org/2000/svg"
   xmlns:sodipodi="http://sodipodi.sourceforge.net/DTD/sodipodi-0.dtd"
   xmlns:inkscape="http://www.inkscape.org/namespaces/inkscape"
   id="svg2602"
   sodipodi:version="0.32"
   inkscape:version="0.92.3 (2405546, 2018-03-11)"
   version="1.0"
   sodipodi:docname="logo.svg"
   inkscape:output_extension="org.inkscape.output.svg.inkscape"
   viewBox="0 0 385 385"
   width="100%"
   height="100%"
   inkscape:export-filename="\\wsl$\Ubuntu-18.04\home\will\raid-map\public\logo512.png"
   inkscape:export-xdpi="127.66753"
   inkscape:export-ydpi="127.66753">
  <metadata
     id="metadata2607">
    <rdf:RDF>
      <cc:Work
         rdf:about="">
        <dc:format>image/svg+xml</dc:format>
        <dc:type
           rdf:resource="http://purl.org/dc/dcmitype/StillImage" />
        <dc:title></dc:title>
      </cc:Work>
    </rdf:RDF>
  </metadata>
  <defs
     id="defs2605">
    <inkscape:perspective
       sodipodi:type="inkscape:persp3d"
       inkscape:vp_x="0 : 202579.72 : 1"
       inkscape:vp_y="0 : 385000 : 0"
       inkscape:vp_z="744.09447 : 202579.72 : 1"
       inkscape:persp3d-origin="372.04725 : 135053.14 : 1"
       id="perspective2609" />
  </defs>
  <sodipodi:namedview
     inkscape:window-height="2004"
     inkscape:window-width="3840"
     inkscape:pageshadow="2"
     inkscape:pageopacity="0.0"
     guidetolerance="10.0"
     gridtolerance="10.0"
     objecttolerance="10.0"
     borderopacity="1.0"
     bordercolor="#666666"
     pagecolor="#ffffff"
     id="base"
     showgrid="false"
     inkscape:zoom="2"
     inkscape:cx="479.65471"
     inkscape:cy="122.85179"
     inkscape:window-x="-16"
     inkscape:window-y="-16"
     inkscape:current-layer="svg2602"
     fit-margin-top="0"
     fit-margin-left="0"
     fit-margin-right="0"
     fit-margin-bottom="0"
     inkscape:window-maximized="1" />
  <circle
     style="opacity:1;fill:#bf43c9;fill-opacity:1;stroke:none;stroke-width:1287.23144531;stroke-linejoin:round;stroke-miterlimit:4;stroke-dasharray:none;stroke-dashoffset:13.72799873;stroke-opacity:0.86724961"
     id="path4517"
     cx="192.64131"
     cy="192.64131"
     r="192.64131" />
  <path
     style="fill:#000000"
     d="M 170.45571,387.42464 C 136.80107,383.50323 103.31807,369.81463 75.630478,348.65795 67.377724,342.35184 51.086207,326.48654 44.061527,317.9149 15.713146,283.32367 0.11931396,239.41175 0.13508346,194.21889 0.13978016,180.75905 2.5575572,160.53179 5.6075576,148.43587 18.850219,95.917147 52.259693,51.642846 98.413755,25.448915 178.34381,-19.913994 279.82842,-1.5319974 338.96464,69.020111 c 41.29973,49.272379 55.77354,115.710429 38.71375,177.704749 -23.16568,84.18282 -99.85687,142.48465 -186.34914,141.66551 -7.53433,-0.0713 -16.92742,-0.50593 -20.87354,-0.96573 z m 89.42957,-14.44975 c 19.13758,-6.97259 40.17451,-19.70227 59.10749,-35.76658 13.99571,-11.87512 28.24174,-29.80457 40.62361,-51.12714 7.6457,-13.16653 8.24153,-15.84276 4.20879,-18.90437 -2.77458,-2.10644 -2.84028,-2.10912 -6,-0.2447 -6.11049,3.60556 -14.20276,7.56275 -15.49121,7.57534 -0.71308,0.007 -2.05792,-1.314 -2.98852,-2.93549 -3.3293,-5.80096 -9.18316,-6.51955 -16.71497,-2.05184 -6.14125,3.64286 -7.04834,3.67095 -11.90792,0.36878 l -3.87219,-2.63122 -4.3867,2.13122 c -5.75713,2.79703 -7.10419,2.6923 -9.05332,-0.70385 l -1.6271,-2.83506 -7.07638,3.51149 c -3.89202,1.93132 -9.09173,3.7696 -11.55493,4.08507 -3.91826,0.50182 -4.58502,0.94887 -5.32972,3.57357 -0.46816,1.65 -1.31677,4.35 -1.88582,6 -2.13471,6.18985 -2.10232,8.17899 0.15898,9.76286 l 2.15564,1.50987 -3.72916,5.86364 c -3.87068,6.08617 -7.83771,11.01298 -17.68621,21.96526 -3.5688,3.96878 -5.51339,6.91565 -5.06218,7.67133 0.40295,0.67487 3.62603,4.46396 7.16241,8.42021 6.5382,7.31446 9.91247,9.30683 15.76204,9.30683 9.71795,0 8.75191,2.95735 -5.81744,17.80907 -6.7375,6.86808 -11.35,12.15671 -10.25,11.75252 1.1,-0.4042 6.16466,-2.25226 11.25481,-4.10681 z m -7.75481,-78.45478 c 2.37476,-2.37476 2.81226,-4.91901 0.51851,-3.01536 -1.18553,0.9839 -2.49588,0.86476 -6.55916,-0.59637 -2.79272,-1.00425 -5.54486,-2.38884 -6.11587,-3.07687 -0.57102,-0.68803 -1.16631,-4.11996 -1.32289,-7.62651 -0.35385,-7.92485 -1.60234,-10.34418 -5.76227,-11.16613 -9.24106,-1.82593 -10.33073,-3.34931 -9.29744,-12.99804 0.82097,-7.66612 -0.50781,-9.5284 -6.78231,-9.50541 -5.32645,0.0195 -6.24199,0.67859 -7.04964,5.07476 -0.97168,5.28905 -4.63391,8.33308 -9.14474,7.60108 -4.97341,-0.80708 -12.42474,-6.42465 -15.83203,-11.9358 -2.78206,-4.49989 -2.83286,-4.83465 -2.1387,-14.09346 l 0.71105,-9.48408 4.44553,-3.19254 c 2.44504,-1.75589 7.00702,-3.7928 10.13774,-4.52646 5.22949,-1.22549 5.96106,-1.17642 8.99938,0.60363 4.0805,2.39063 4.19284,2.39054 4.19284,-0.003 0,-2.64192 0.77558,-2.9834 10.25458,-4.51498 4.53498,-0.73274 9.22383,-1.64848 10.41967,-2.03497 1.73981,-0.5623 2.4624,-0.13388 3.61635,2.14411 0.79316,1.56575 1.74549,4.42182 2.11629,6.34682 0.37081,1.925 1.9557,4.99781 3.52199,6.82847 l 2.84779,3.32847 1.61166,-2.30098 c 2.26839,-3.23858 2.00808,-7.53557 -0.88833,-14.66368 -1.375,-3.3839 -2.5,-6.90263 -2.5,-7.81942 0,-1.73241 5.12247,-8.48003 10.7467,-14.15619 2.73147,-2.75669 3.2533,-4.02726 3.2533,-7.92126 0,-2.92842 -0.61532,-5.31785 -1.66938,-6.48257 -1.56338,-1.72752 -1.55022,-1.93178 0.2073,-3.21691 1.03217,-0.75474 2.37836,-2.88509 2.99153,-4.7341 0.77378,-2.33333 2.84947,-4.56416 6.78477,-7.29185 5.34033,-3.70158 5.57504,-4.03487 4.03771,-5.7336 -1.51815,-1.67753 -1.46518,-2.05358 0.75793,-5.38099 2.11596,-3.16704 2.76957,-3.5192 5.6978,-3.06992 4.81919,0.73942 6.12842,-0.13353 6.8359,-4.55791 0.54681,-3.41956 1.14858,-4.1607 4.45111,-5.48212 3.44875,-1.37991 3.76316,-1.8063 3.24443,-4.39992 -1.30372,-6.51864 0.3675,-8.2547 10.01174,-10.40007 l 2.85084,-0.63417 -5.52398,-3.95564 c -3.03819,-2.17602 -5.74323,-3.95606 -6.0112,-3.95606 -0.26797,0 -2.30505,2.87833 -4.52684,6.39629 -3.8014,6.01909 -8.57639,10.60371 -11.04403,10.60371 -0.6026,0 -1.09563,-0.4132 -1.09563,-0.91821 0,-0.50502 -0.26553,-1.61016 -0.59006,-2.45588 -0.37719,-0.98296 1.0403,-3.19142 3.92937,-6.12194 8.24862,-8.36699 7.10852,-13.59201 -4.0591,-18.60258 -4.73722,-2.125445 -8.22619,-4.692129 -12.47338,-9.176113 -4.11348,-4.342823 -5.70679,-5.530391 -5.26906,-3.927288 0.34511,1.263893 0.093,2.941937 -0.56016,3.728986 -1.49303,1.798993 -4.00915,0.638764 -9.04687,-4.171665 -2.85929,-2.730287 -4.82977,-3.611225 -9.9063,-4.428776 -8.43058,-1.357705 -10.4017,-0.599854 -6.51029,2.50305 2.52948,2.016941 2.74471,2.553579 1.58474,3.951265 -1.0906,1.314094 -1.10922,2.18001 -0.0993,4.618248 0.68369,1.650497 1.56622,3.000908 1.96122,3.000908 0.98778,0 3.03919,4.684435 3.03919,6.940055 0,1.01528 -0.6786,2.10637 -1.50801,2.42464 -1.25445,0.48138 -1.39779,2.01267 -0.85247,9.10699 0.4475,5.82183 0.3144,8.52831 -0.41941,8.52831 -1.53745,0 -5.15336,-4.86399 -5.88218,-7.91248 -0.34023,-1.42314 -1.24201,-3.82502 -2.00395,-5.33752 -1.19368,-2.36953 -1.99032,-2.75 -5.75811,-2.75 -2.92462,0 -6.2615,-0.99353 -10.07587,-3 -3.1367,-1.65 -6.51509,-3 -7.50754,-3 -1.25114,0 -2.28606,-1.41344 -3.37506,-4.609465 -1.77826,-5.218896 -1.45014,-6.294406 3.96565,-12.998858 3.65957,-4.530347 6.44351,-5.915028 13.90553,-6.916358 l 4.98858,-0.669418 -2.85823,-1.497581 c -2.43324,-1.2749 -2.65259,-1.703231 -1.47519,-2.880628 0.76067,-0.760677 2.80184,-1.666806 4.53592,-2.013622 2.73839,-0.54768 3.19674,-0.333312 3.4866,1.630683 0.27239,1.845586 1.52859,2.598106 6.83374,4.093725 13.36956,3.76912 16.10764,2.633578 16.31838,-6.76758 0.1147,-5.116642 -0.29025,-6.483117 -3.15198,-10.636237 -3.5977,-5.221201 -6.14537,-7.22483 -10.57199,-8.314396 -2.205,-0.542737 -3.22134,-0.283365 -4.21512,1.0757 -1.06189,1.452232 -2.21433,1.681679 -6.09441,1.21339 -2.63168,-0.31762 -6.47238,-1.2882 -8.53488,-2.156843 -3.25521,-1.370965 -3.75,-2.014166 -3.75,-4.874801 0,-1.812498 0.60458,-4.122259 1.3435,-5.132803 1.29702,-1.77378 1.58248,-1.758283 8.25,0.447895 19.27843,6.378919 19.71862,6.632393 32.38231,18.64664 6.54623,6.210515 12.95159,11.555216 14.23413,11.877113 1.28254,0.321898 5.38408,0.449858 9.11452,0.284357 l 6.78263,-0.300912 -6.88634,-7.003597 c -5.61196,-5.707522 -7.00999,-7.776902 -7.55453,-11.182294 -0.36751,-2.298283 -0.2752,-5.221665 0.20514,-6.496403 1.45083,-3.850263 -0.27584,-6.426786 -5.49978,-8.206763 -2.62996,-0.896116 -7.75417,-3.42527 -11.38714,-5.620342 -5.87706,-3.550974 -11.45739,-5.414092 -25.26981,-8.436891 -1.6707,-0.365627 -3.14672,-1.559984 -3.68832,-2.9845 -0.49662,-1.306212 -1.3807,-2.670202 -1.96463,-3.031088 -0.58392,-0.360886 -1.06168,-1.362743 -1.06168,-2.226349 0,-1.345783 1.03617,-1.471898 7.25,-0.882422 7.0064,0.664664 7.17027,0.630609 4.87714,-1.013544 -3.08615,-2.212747 -11.5488,-5.4158073 -14.30884,-5.4158073 -1.18814,0 -4.89581,-1.314861 -8.23927,-2.9219144 l -6.07903,-2.9219147 -14.5,1.9070118 c -7.975,1.0488566 -17.65,1.8405383 -21.5,1.7592923 -7.63327,-0.161084 -11.29748,1.165104 -15.42431,5.5825113 -1.77833,1.903539 -3.42637,2.595014 -6.1849,2.595014 -5.84993,0 -8.87907,1.60885 -15.89079,8.439978 -6.53062,6.362422 -8.31035,7.265009 -21,10.650135 l -4.5,1.200432 7.5,1.477659 c 4.125,0.812712 9.13542,1.53484 11.13426,1.604727 2.54945,0.08914 4.48346,0.975645 6.47921,2.969921 4.66623,4.66277 7.86001,5.89747 12.16341,4.702306 5.43458,-1.509319 10.32524,-1.287756 11.65289,0.527915 1.02621,1.403425 1.99705,1.236695 9.00209,-1.546006 10.01817,-3.979643 13.29422,-3.424534 4.30928,0.730182 -7.24044,3.348042 -7.33458,3.464965 -8.17367,10.152332 -0.30432,2.425269 -0.77262,4.628907 -1.04069,4.896972 -0.26807,0.268066 -3.36398,-0.928746 -6.8798,-2.65958 -3.51583,-1.730835 -7.19381,-3.146973 -8.17331,-3.146973 -0.97949,0 -3.39927,-1.74913 -5.37728,-3.886955 -2.72429,-2.944391 -5.25877,-4.399357 -10.45173,-6 -11.00683,-3.392678 -15.8282,-2.287978 -7.82776,1.793543 4.18157,2.133277 6.8354,4.774444 5.81881,5.791036 -0.35711,0.357111 -2.75444,-0.0045 -5.32739,-0.803497 -3.33061,-1.034327 -5.14934,-2.308465 -6.31412,-4.423459 -3.18116,-5.776269 -10.48098,-7.396426 -15.909435,-3.531019 -3.052352,2.173465 -5.215093,2.318968 -9.232636,0.621146 -1.071483,-0.452811 -2.383158,0.09283 -3.75,1.559965 -2.675586,2.871905 -2.641807,3.252449 0.43485,4.899026 1.395334,0.746761 2.398075,2.060301 2.228312,2.91898 -0.243775,1.233046 -1.749012,1.561234 -7.160601,1.561234 -5.109361,0 -7.031955,0.381479 -7.559763,1.5 -0.389302,0.825 -1.458669,2.998968 -2.37637,4.83104 -2.565249,5.121183 -2.157234,7.066828 1.831451,8.733407 3.754636,1.568787 4.885283,4.031075 1.436934,3.129312 -1.134686,-0.296727 -3.947186,0.315906 -6.25,1.361406 -2.302814,1.045501 -5.397876,1.910794 -6.877917,1.922873 -1.480041,0.01208 -2.981905,0.492683 -3.337475,1.068009 -0.441578,0.714488 1.045294,0.796451 4.690983,0.258587 2.935611,-0.433102 7.587475,-0.791323 10.337475,-0.796046 4.149456,-0.0071 5.091782,-0.348806 5.539546,-2.008588 0.917156,-3.39973 4.920138,-2.907081 12.23173,1.505364 3.724201,2.247505 7.281871,3.770804 7.905941,3.38511 0.82044,-0.507061 0.97086,0.885865 0.54316,5.029892 -0.558,5.406435 -0.39684,5.986183 2.844305,10.232327 1.8897,2.475641 3.71473,5.612406 4.05561,6.970586 0.57964,2.30947 0.73649,2.36381 2.42152,0.83887 1.67893,-1.51941 1.90541,-1.47145 3.32271,0.70365 0.83654,1.28381 2.98743,5.47485 4.77975,9.31343 2.70728,5.79812 3.21909,7.99813 3.02431,13 -0.19718,5.06322 -0.71257,6.57741 -3.24061,9.52077 -1.65338,1.925 -4.09812,5.75672 -5.43275,8.51493 -2.19298,4.53211 -2.43857,6.37558 -2.55083,19.14775 -0.12837,14.60579 0.52061,17.71536 3.92265,18.79512 3.69037,1.17128 4.96391,3.94381 5.99083,13.0422 1.44446,12.79774 8.91511,33.62167 13.90168,38.75 4.20796,4.32759 4.86253,4.51604 5.76875,1.66082 0.47547,-1.49808 -0.23431,-3.20587 -2.50857,-6.03588 -2.47998,-3.08601 -3.28199,-5.19282 -3.6776,-9.66082 -0.27827,-3.14277 -1.33835,-7.96412 -2.35573,-10.71412 -3.91153,-10.5729 -2.77672,-9.50038 4.02465,3.80374 5.65609,11.06386 7.73554,14.20421 10.47641,15.82137 3.01721,1.78019 3.78164,3.15661 6.49583,11.69626 2.78506,8.7626 3.56392,10.12755 8.22931,14.42183 4.63541,4.26668 16.85109,11.30608 25.57271,14.7365 2.82421,1.11084 3.82345,1.04953 7.11948,-0.43677 l 3.83417,-1.72897 4.65404,3.55251 c 5.20174,3.97058 10.0139,5.61967 16.42273,5.62795 5.51316,0.007 8.18426,1.45294 8.18426,4.42998 0,3.49708 2.66081,6.02545 11,10.4525 8.64114,4.58735 13.88131,5.24179 17,2.1231 z m 12,-41.5 c 0,-1.63344 -5.46287,-2.17811 -6.4138,-0.63948 -0.83267,1.3473 0.49306,2.13948 3.58047,2.13948 1.85185,0 2.83333,-0.51961 2.83333,-1.5 z m 22.14733,-3.63399 c 3.21897,-1.1737 5.85267,-2.48689 5.85267,-2.91821 0,-0.43133 0.27233,-1.49391 0.60518,-2.3613 0.5189,-1.35223 -0.087,-1.48643 -4.25,-0.94127 -6.91254,0.90522 -10.35518,2.86021 -10.35518,5.88045 0,3.01722 0.72288,3.04742 8.14733,0.34033 z m -14.8737,-3.65125 c 0.97549,-0.86213 1.40181,-1.93932 0.94736,-2.39377 -0.82556,-0.82556 -14.38491,-3.03504 -17.22099,-2.80614 -0.825,0.0666 -5.4375,0.0706 -10.25,0.009 -4.8125,-0.0617 -8.74311,0.24526 -8.73469,0.68204 0.067,3.47408 5.4055,5.42704 12.75412,4.66578 4.09362,-0.42408 6.73035,-0.15019 9.23057,0.95881 4.07913,1.80935 10.58246,1.26272 13.27363,-1.11568 z m 30.96059,-3.27464 c 2.52133,-2.36236 2.80987,-2.95215 1.26578,-2.58732 -1.1,0.25991 -3.73135,0.76547 -5.84744,1.12347 -3.73192,0.63137 -3.79482,0.70905 -2.09501,2.58732 2.31672,2.55995 2.83923,2.47203 6.67667,-1.12347 z m 74.73211,-92.07431 c -5.46285,-21.40184 -15.18235,-46.04979 -17.31713,-43.91501 -0.56422,0.56422 -1.05361,4.96861 -1.08753,9.78753 -0.0535,7.59504 0.28827,9.42743 2.56643,13.76167 1.44546,2.75 4.38379,8.375 6.52963,12.5 4.34916,8.36051 10.29188,17.38372 10.98952,16.68608 0.24996,-0.24995 -0.50646,-4.21908 -1.68092,-8.82027 z m -21.00214,-50.32266 c 0.98631,-1.188435 0.0595,-3.16903 -5.03031,-10.749996 C 340.09786,72.979383 334.21918,65.780741 323.804,55.932063 304.18432,37.379545 286.20985,25.4991 263.16004,15.848705 256.3013,12.977118 250.53062,10.786626 250.3363,10.980944 c -0.53267,0.532676 2.70174,6.600503 5.53435,10.382556 2.2123,2.953826 2.92678,3.287476 6.13194,2.86352 1.99534,-0.263928 4.57009,-0.790056 5.72168,-1.169173 1.6499,-0.543168 3.87596,0.819004 10.5,6.425183 8.08314,6.841068 18.9994,13.020094 25.54008,14.456667 3.14585,0.690946 6.25063,3.394385 8.15214,7.098351 0.96831,1.886175 0.77199,1.992764 -3.00673,1.632406 -4.37149,-0.416889 -4.37678,-0.3557 -0.43751,5.056185 2.13758,2.936682 6.82787,5.049337 9.19412,4.141323 2.24199,-0.860334 6.27856,2.272322 7.88638,6.120383 1.18194,2.828777 2.27682,3.673678 6.25522,4.827051 5.16558,1.49755 7.2813,4.07124 7.30776,8.889615 0.008,1.476696 0.48602,3.924456 1.06202,5.439467 1.71247,4.504137 11.21118,14.178192 14.08028,14.340192 0.34515,0.0195 1.17163,-0.62014 1.83663,-1.42141 z M 71.150534,85.995945 c 0.69572,-0.838291 1.014361,-1.77475 0.708091,-2.08102 -0.765275,-0.765276 -4.728147,1.447737 -4.728147,2.64037 0,1.499542 2.613074,1.135959 4.020056,-0.55935 z M 53.921672,77.665172 c 0.330758,-1.006117 -0.164277,-1.170265 -1.922881,-0.637605 -3.821231,1.157405 -4.777684,2.69223 -1.445432,2.319491 1.607585,-0.179821 3.123326,-0.936669 3.368313,-1.681886 z"
     id="path2613"
     inkscape:connector-curvature="0" />
</svg>
