<?xml version="1.0" encoding="UTF-8" standalone="no"?>
<svg
   xmlns:dc="http://purl.org/dc/elements/1.1/"
   xmlns:cc="http://creativecommons.org/ns#"
   xmlns:rdf="http://www.w3.org/1999/02/22-rdf-syntax-ns#"
   xmlns:svg="http://www.w3.org/2000/svg"
   xmlns="http://www.w3.org/2000/svg"
   xmlns:sodipodi="http://sodipodi.sourceforge.net/DTD/sodipodi-0.dtd"
   xmlns:inkscape="http://www.inkscape.org/namespaces/inkscape"
   version="1.1"
   id="house"
   width="100%"
   height="100%"
   viewBox="0 0 462.79495 358.66001"
   xml:space="preserve"
   sodipodi:docname="logo.svg"
   inkscape:version="1.0 (9f2f71dc58, 2020-08-02)"
   inkscape:export-filename="/home/will/.../housing/public/logo.png"
   inkscape:export-xdpi="20.610048"
   inkscape:export-ydpi="20.610048"><metadata
   id="metadata45"><rdf:RDF><cc:Work
       rdf:about=""><dc:format>image/svg+xml</dc:format><dc:type
         rdf:resource="http://purl.org/dc/dcmitype/StillImage" /><dc:title></dc:title></cc:Work></rdf:RDF></metadata><defs
   id="defs43">
	
</defs><sodipodi:namedview
   pagecolor="#ffffff"
   bordercolor="#666666"
   borderopacity="1"
   objecttolerance="10"
   gridtolerance="10"
   guidetolerance="10"
   inkscape:pageopacity="0"
   inkscape:pageshadow="2"
   inkscape:window-width="3440"
   inkscape:window-height="1376"
   id="namedview41"
   showgrid="false"
   fit-margin-top="0"
   fit-margin-left="0"
   fit-margin-right="0"
   fit-margin-bottom="0"
   inkscape:zoom="1.4142136"
   inkscape:cx="-81.851395"
   inkscape:cy="68.695538"
   inkscape:window-x="0"
   inkscape:window-y="27"
   inkscape:window-maximized="1"
   inkscape:current-layer="house" />
<g
   id="g6"
   transform="translate(1.2492837,-45.744)"><path
     d="M 230.149,110.939 65.986,246.274 c 0,0.191 -0.048,0.472 -0.144,0.855 -0.094,0.38 -0.144,0.656 -0.144,0.852 v 137.041 c 0,4.948 1.809,9.236 5.426,12.847 3.616,3.613 7.898,5.431 12.847,5.431 H 220.31597 V 293.664 h 73.097 v 109.64 H 376.327 c 4.948,0 9.236,-1.814 12.847,-5.435 3.617,-3.607 5.432,-7.898 5.432,-12.847 V 247.981 c 0,-0.76 -0.104,-1.334 -0.288,-1.707 z"
     id="path2"
     style="fill:#005f55;fill-opacity:0.691468;stroke:#0b0839;stroke-width:2.2;stroke-linecap:round;stroke-linejoin:round;stroke-miterlimit:4;stroke-dasharray:none;stroke-opacity:1"
     sodipodi:nodetypes="cccsscsccccscsscc" /><path
     d="M 394.6,173.36345 V 56.989 c 0,-2.663 -0.856,-4.853 -2.574,-6.567 -1.704,-1.712 -3.894,-2.568 -6.563,-2.568 h -54.816 c -2.666,0 -4.855,0.856 -6.57,2.568 -1.711,1.714 -2.566,3.905 -2.566,6.567 v 55.61129"
     id="path875"
     style="fill:#940000;fill-opacity:0.691468;stroke:#000000;stroke-width:2.3;stroke-linecap:round;stroke-miterlimit:4;stroke-dasharray:none;stroke-opacity:1" /><path
     d="M 321.511,112.662 251.849,54.417 c -6.084,-4.949 -13.318,-7.423 -21.694,-7.423 -8.375,0 -15.608,2.474 -21.698,7.423 L 3.172,225.438 c -1.903,1.52 -2.946,3.566 -3.14,6.136 -0.193,2.568 0.472,4.811 1.997,6.713 l 17.701,21.128 c 1.525,1.712 3.521,2.759 5.996,3.142 2.285,0.192 4.57,-0.476 6.855,-1.998 L 230.149,95.817 427.719,260.558 c 1.526,1.328 3.521,1.991 5.996,1.991 h 0.858 c 2.471,-0.376 4.463,-1.43 5.996,-3.138 l 17.703,-21.125 c 1.522,-1.906 2.189,-4.145 1.991,-6.716 -0.195,-2.563 -1.242,-4.609 -3.141,-6.132 L 394.6,173.476"
     id="path4"
     style="fill:#5f3300;fill-opacity:0.691468;stroke:#0b0839;stroke-width:2.5;stroke-miterlimit:4;stroke-dasharray:none;stroke-opacity:1" /><rect
     style="fill:#5f4900;fill-opacity:0.691468;stroke:#0b0839;stroke-width:2.2;stroke-linecap:round;stroke-linejoin:round;stroke-miterlimit:4;stroke-dasharray:none;stroke-opacity:1"
     id="rect877"
     width="73.097"
     height="109.636"
     x="220.31596"
     y="293.664" /></g><g
   id="g10"
   transform="translate(1.2492837,-45.744)">
</g><g
   id="g12"
   transform="translate(1.2492837,-45.744)">
</g><g
   id="g14"
   transform="translate(1.2492837,-45.744)">
</g><g
   id="g16"
   transform="translate(1.2492837,-45.744)">
</g><g
   id="g18"
   transform="translate(1.2492837,-45.744)">
</g><g
   id="g20"
   transform="translate(1.2492837,-45.744)">
</g><g
   id="g22"
   transform="translate(1.2492837,-45.744)">
</g><g
   id="g24"
   transform="translate(1.2492837,-45.744)">
</g>
<g
   id="g26"
   transform="translate(1.2492837,-45.744)">
</g>
<g
   id="g28"
   transform="translate(1.2492837,-45.744)">
</g>
<g
   id="g30"
   transform="translate(1.2492837,-45.744)">
</g>
<g
   id="g32"
   transform="translate(1.2492837,-45.744)">
</g>
<g
   id="g34"
   transform="translate(1.2492837,-45.744)">
</g>
<g
   id="g36"
   transform="translate(1.2492837,-45.744)">
</g>
<g
   id="g38"
   transform="translate(1.2492837,-45.744)">
</g>
</svg>
